<svg width="19" height="24" viewBox="0 0 19 24" fill="none" xmlns="http://www.w3.org/2000/svg">
<g clip-path="url(#clip0_5_454)">
<path d="M15.6584 10.2252C16.267 8.75518 18.0201 4.50278 18.0201 3.14094C18.0201 1.94144 17.2033 0.935849 15.7467 0.935849C13.4266 0.935849 11.3458 6.87474 10.6955 8.29068C10.1909 7.00551 7.82914 0.511963 5.74833 0.511963C4.13048 0.511963 3.37096 1.54462 3.37096 2.84332C3.37096 4.43514 5.15008 8.56126 5.79515 10.1486C5.46741 10.0448 5.11367 9.95463 4.75473 9.95463C3.53744 9.95463 2.24211 11.2669 2.24211 12.3266C2.24211 12.7279 2.49701 13.2916 2.65828 13.6659C0.738706 14.1168 5.69655e-06 15.2261 5.69655e-06 16.8991C-0.0051964 20.1549 3.55304 23.6001 8.55744 23.6001C14.696 23.6001 18.5143 19.6048 18.5143 14.4505C18.5143 12.507 18.1553 10.7528 15.6584 10.2252ZM13.8168 5.38212C14.0248 4.82746 14.9144 2.48257 15.7467 2.48257C16.1942 2.48257 16.3138 2.88391 16.3138 3.20407C16.3138 4.06537 14.3058 8.82279 13.8636 9.87797L12.0949 9.60745L13.8168 5.38212ZM5.00443 2.69C5.00443 2.15338 5.75873 0.629207 7.41298 4.81393L9.21291 9.33687C8.40137 9.27824 7.77195 9.20158 7.37136 9.40002C6.80436 8.10128 5.00443 4.00224 5.00443 2.69ZM4.88478 11.5149C6.40899 11.5149 8.37538 15.7808 8.37538 16.358C8.37538 16.588 8.1205 16.872 7.824 16.872C6.73672 16.872 3.82355 13.4043 3.82355 12.4664C3.82875 12.1192 4.48422 11.5149 4.88478 11.5149ZM14.4723 19.9159C12.9584 21.3589 11.0233 22.1075 8.76555 22.1075C5.6755 22.1075 3.23571 20.6374 2.06004 18.1257C1.17048 16.1686 2.25772 15.0458 3.13167 15.0458C3.72471 15.0458 5.95641 17.7649 5.95641 18.3421C5.95641 18.5631 5.55585 18.7164 5.34776 18.7164C4.51022 18.7164 4.18249 18.0175 2.68949 16.3986C1.14447 17.7379 3.75592 20.3173 5.72232 20.3173C7.08007 20.3173 7.96443 19.226 7.69913 18.4233C7.89161 18.4233 8.13086 18.4368 8.30777 18.3963C8.36496 19.6183 8.78112 21.0749 10.477 21.1785C10.477 21.1379 10.5811 20.8584 10.5811 20.8449C10.5811 20.0602 10.0297 19.3748 10.0297 18.5766C10.0297 17.3005 11.1585 16.0649 12.3029 15.3434C12.7192 15.0728 13.2237 14.906 13.7128 14.7526C14.2173 14.5858 14.7531 14.3919 15.1381 14.0582C15.0809 13.5531 14.8416 13.1067 14.2589 13.1067C12.818 13.1067 7.98521 13.2871 7.98521 11.3165C7.98521 11.0143 7.99042 10.7258 8.89042 10.7258C10.5707 10.7258 14.8364 11.0865 16.0849 12.038C17.0265 12.764 17.349 17.1426 14.4723 19.9159ZM9.34299 14.234C9.84761 14.3739 10.3678 14.4144 10.888 14.5046C10.503 14.7481 10.1597 15.0458 9.83198 15.3659C9.68633 14.9826 9.50942 14.6084 9.34299 14.234Z" fill="black"/>
</g>
<defs>
<clipPath id="clip0_5_454">
<rect width="18.5143" height="24" fill="white"/>
</clipPath>
</defs>
</svg>
