<svg width="25" height="24" viewBox="0 0 25 24" fill="none" xmlns="http://www.w3.org/2000/svg">
<path d="M24.0588 7.48611L13.0901 0.173585C12.7157 -0.0568059 12.3162 -0.0589153 11.9384 0.173585L0.969625 7.48611C0.688376 7.67356 0.514282 8.00844 0.514282 8.34322V15.6557C0.514282 15.9905 0.688376 16.3254 0.969672 16.5129L11.9384 23.8264C12.3128 24.0568 12.7124 24.0589 13.0902 23.8264L24.0589 16.5129C24.3401 16.3254 24.5143 15.9905 24.5143 15.6557V8.34322C24.5142 8.00844 24.3401 7.67356 24.0588 7.48611ZM13.5455 2.95924L21.6214 8.34322L18.0187 10.754L13.5455 7.76731V2.95924ZM11.483 2.95924V7.76731L7.00979 10.754L3.40712 8.34322L11.483 2.95924ZM2.57678 10.2718L5.1616 11.9995L2.57678 13.7272V10.2718ZM11.483 21.0397L3.40712 15.6557L7.00979 13.245L11.483 16.2317V21.0397ZM12.5143 14.437L8.87138 11.9995L12.5143 9.56198L16.1571 11.9995L12.5143 14.437ZM13.5455 21.0397V16.2317L18.0187 13.245L21.6214 15.6557L13.5455 21.0397ZM22.4517 13.7272L19.8669 11.9995L22.4517 10.2718V13.7272Z" fill="black"/>
</svg>
