<svg width="25" height="24" viewBox="0 0 25 24" fill="none" xmlns="http://www.w3.org/2000/svg">
<path d="M8.5417 19.3248C8.5417 19.424 8.43041 19.5034 8.29009 19.5034C8.13041 19.5183 8.01912 19.4389 8.01912 19.3248C8.01912 19.2255 8.13041 19.1461 8.27073 19.1461C8.41589 19.1312 8.5417 19.2106 8.5417 19.3248ZM7.03686 19.1014C7.00299 19.2007 7.09977 19.3148 7.24493 19.3446C7.37073 19.3942 7.51589 19.3446 7.54493 19.2454C7.57396 19.1461 7.48202 19.032 7.33686 18.9873C7.21106 18.9526 7.07073 19.0022 7.03686 19.1014ZM9.17557 19.0171C9.03525 19.0518 8.93848 19.1461 8.95299 19.2603C8.96751 19.3595 9.09331 19.424 9.23848 19.3893C9.3788 19.3545 9.47557 19.2603 9.46106 19.161C9.44654 19.0667 9.3159 19.0022 9.17557 19.0171ZM12.3594 0C5.64815 0 0.514282 5.22573 0.514282 12.109C0.514282 17.6126 3.8917 22.3222 8.71589 23.9798C9.33525 24.0939 9.55299 23.7019 9.55299 23.3793C9.55299 23.0716 9.53848 21.3744 9.53848 20.3322C9.53848 20.3322 6.15138 21.0766 5.44009 18.8533C5.44009 18.8533 4.88848 17.4092 4.09493 17.037C4.09493 17.037 2.98686 16.2578 4.17235 16.2727C4.17235 16.2727 5.37719 16.372 6.04009 17.5531C7.09977 19.4687 8.87557 18.9178 9.56751 18.5903C9.6788 17.7963 9.99331 17.2454 10.3417 16.9179C7.63686 16.6102 4.90783 16.2082 4.90783 11.4341C4.90783 10.0693 5.27557 9.38447 6.04977 8.51103C5.92396 8.18846 5.51267 6.85846 6.17557 5.14136C7.18686 4.81878 9.51428 6.48129 9.51428 6.48129C10.482 6.20338 11.5223 6.05946 12.553 6.05946C13.5836 6.05946 14.624 6.20338 15.5917 6.48129C15.5917 6.48129 17.9191 4.81382 18.9304 5.14136C19.5933 6.86342 19.182 8.18846 19.0562 8.51103C19.8304 9.38943 20.3046 10.0743 20.3046 11.4341C20.3046 16.2231 17.4546 16.6052 14.7498 16.9179C15.1949 17.3099 15.5723 18.0543 15.5723 19.2205C15.5723 20.893 15.5578 22.9624 15.5578 23.3694C15.5578 23.6919 15.7804 24.084 16.3949 23.9699C21.2336 22.3222 24.5143 17.6126 24.5143 12.109C24.5143 5.22573 19.0707 0 12.3594 0ZM5.21751 17.1164C5.1546 17.166 5.16912 17.2801 5.25138 17.3744C5.3288 17.4538 5.44009 17.4886 5.50299 17.424C5.5659 17.3744 5.55138 17.2603 5.46912 17.166C5.3917 17.0866 5.28041 17.0518 5.21751 17.1164ZM4.69493 16.7144C4.66106 16.7789 4.70944 16.8583 4.80622 16.9079C4.88364 16.9576 4.98041 16.9427 5.01428 16.8732C5.04815 16.8087 4.99977 16.7293 4.90299 16.6796C4.80622 16.6499 4.7288 16.6648 4.69493 16.7144ZM6.26267 18.4811C6.18525 18.5456 6.21428 18.6945 6.32557 18.7888C6.43686 18.9029 6.57719 18.9178 6.64009 18.8384C6.70299 18.7739 6.67396 18.625 6.57719 18.5307C6.47073 18.4166 6.32557 18.4017 6.26267 18.4811ZM5.71106 17.7516C5.63364 17.8012 5.63364 17.9302 5.71106 18.0444C5.78848 18.1585 5.91912 18.2082 5.98202 18.1585C6.05944 18.094 6.05944 17.965 5.98202 17.8508C5.91428 17.7367 5.78848 17.6871 5.71106 17.7516Z" fill="black"/>
</svg>
