<svg width="25" height="24" viewBox="0 0 25 24" fill="none" xmlns="http://www.w3.org/2000/svg">
<path d="M5.88643 24H0.910711V7.97643H5.88643V24ZM3.39589 5.79066C1.80482 5.79066 0.514282 4.47278 0.514282 2.88167C0.514282 2.1174 0.817879 1.38444 1.35829 0.844022C1.89869 0.303604 2.63164 0 3.39589 0C4.16014 0 4.89309 0.303604 5.43349 0.844022C5.9739 1.38444 6.2775 2.1174 6.2775 2.88167C6.2775 4.47278 4.98643 5.79066 3.39589 5.79066ZM24.5089 24H19.5439V16.1998C19.5439 14.3409 19.5064 11.9569 16.957 11.9569C14.37 11.9569 13.9736 13.9766 13.9736 16.0659V24H9.00321V7.97643H13.7754V10.1622H13.845C14.5093 8.90323 16.132 7.57463 18.5529 7.57463C23.5886 7.57463 24.5143 10.8908 24.5143 15.198V24H24.5089Z" fill="black"/>
</svg>
