<svg width="23" height="23" viewBox="0 0 23 23" fill="none" xmlns="http://www.w3.org/2000/svg">
<path d="M19.3301 3.40582C17.2842 1.35504 14.5596 0.227112 11.6641 0.227112C5.6875 0.227112 0.824219 5.09039 0.824219 11.067C0.824219 12.9761 1.32227 14.8414 2.26953 16.4869L0.731445 22.1021L6.47852 20.5933C8.06055 21.4576 9.84277 21.9117 11.6592 21.9117H11.6641C17.6357 21.9117 22.6064 17.0484 22.6064 11.0718C22.6064 8.17633 21.376 5.4566 19.3301 3.40582ZM11.6641 20.0855C10.043 20.0855 8.45605 19.6509 7.07422 18.8306L6.74707 18.6353L3.33887 19.5289L4.24707 16.2037L4.03223 15.8619C3.12891 14.4263 2.65527 12.7711 2.65527 11.067C2.65527 6.10114 6.69824 2.05817 11.6689 2.05817C14.0762 2.05817 16.3369 2.99567 18.0361 4.69977C19.7354 6.40387 20.7803 8.66461 20.7754 11.0718C20.7754 16.0425 16.6299 20.0855 11.6641 20.0855ZM16.6055 13.3375C16.3369 13.2007 15.0039 12.5464 14.7549 12.4586C14.5059 12.3658 14.3252 12.3218 14.1445 12.5953C13.9639 12.8687 13.4463 13.4742 13.2852 13.6597C13.1289 13.8404 12.9678 13.8648 12.6992 13.7281C11.1074 12.9322 10.0625 12.3072 9.0127 10.5054C8.73438 10.0269 9.29102 10.0611 9.80859 9.02594C9.89648 8.84528 9.85254 8.68903 9.78418 8.55231C9.71582 8.41559 9.17383 7.08258 8.94922 6.54059C8.72949 6.01324 8.50488 6.08649 8.33887 6.07672C8.18262 6.06696 8.00195 6.06696 7.82129 6.06696C7.64062 6.06696 7.34766 6.13531 7.09863 6.40387C6.84961 6.67731 6.15137 7.3316 6.15137 8.66461C6.15137 9.99762 7.12305 11.2867 7.25488 11.4673C7.3916 11.648 9.16406 14.3824 11.8838 15.5591C13.6025 16.3013 14.2764 16.3648 15.1357 16.2379C15.6582 16.1597 16.7373 15.5836 16.9619 14.9488C17.1865 14.314 17.1865 13.772 17.1182 13.6597C17.0547 13.5377 16.874 13.4693 16.6055 13.3375Z" fill="black"/>
</svg>
